<?xml version="1.0" encoding="UTF-8"?>
<svg xmlns="http://www.w3.org/2000/svg" viewBox="0 0 360 88" width="360" height="88">
  <g transform="translate(6, 6)">
    <rect x="48.0" y="12.0" width="7.0" height="7.0" rx="1.2" fill="#fbbf24" opacity="1.0"/>
    <rect x="55.0" y="12.0" width="7.0" height="7.0" rx="1.2" fill="#f59e0b" opacity="1.0"/>
    <rect x="48.0" y="19.0" width="7.0" height="7.0" rx="1.2" fill="#f97316" opacity="1.0"/>
    <rect x="55.0" y="19.0" width="7.0" height="7.0" rx="1.2" fill="#fb923c" opacity="1.0"/>
    <rect x="56.0" y="13.0" width="4.0" height="4.0" rx="1.0" fill="#ffffff" opacity="1.0"/>
    <rect x="62.0" y="16.0" width="7.0" height="5.0" rx="1.2" fill="#fde68a" opacity="1.0"/>
    <rect x="69.0" y="18.0" width="5.0" height="3.0" rx="1.0" fill="#fef3c7" opacity="1.0"/>
    <rect x="34.0" y="26.0" width="7.0" height="7.0" rx="1.2" fill="#f97316" opacity="1.0"/>
    <rect x="41.0" y="26.0" width="7.0" height="7.0" rx="1.2" fill="#ef4444" opacity="1.0"/>
    <rect x="48.0" y="26.0" width="7.0" height="7.0" rx="1.2" fill="#e879f9" opacity="1.0"/>
    <rect x="55.0" y="26.0" width="7.0" height="7.0" rx="1.2" fill="#8b5cf6" opacity="1.0"/>
    <rect x="34.0" y="33.0" width="7.0" height="7.0" rx="1.2" fill="#a855f7" opacity="1.0"/>
    <rect x="41.0" y="33.0" width="7.0" height="7.0" rx="1.2" fill="#7c3aed" opacity="1.0"/>
    <rect x="48.0" y="33.0" width="7.0" height="7.0" rx="1.2" fill="#6366f1" opacity="1.0"/>
    <rect x="55.0" y="33.0" width="7.0" height="7.0" rx="1.2" fill="#818cf8" opacity="1.0"/>
    <rect x="41.0" y="40.0" width="7.0" height="7.0" rx="1.2" fill="#3b82f6" opacity="1.0"/>
    <rect x="48.0" y="40.0" width="7.0" height="7.0" rx="1.2" fill="#60a5fa" opacity="1.0"/>
    <rect x="20.0" y="19.0" width="7.0" height="7.0" rx="1.2" fill="#fbbf24" opacity="0.7"/>
    <rect x="27.0" y="19.0" width="7.0" height="7.0" rx="1.2" fill="#f59e0b" opacity="0.8"/>
    <rect x="13.0" y="26.0" width="7.0" height="7.0" rx="1.2" fill="#fcd34d" opacity="0.5"/>
    <rect x="20.0" y="26.0" width="7.0" height="7.0" rx="1.2" fill="#fbbf24" opacity="0.7"/>
    <rect x="27.0" y="26.0" width="7.0" height="7.0" rx="1.2" fill="#f97316" opacity="0.8"/>
    <rect x="6.0" y="33.0" width="7.0" height="7.0" rx="1.2" fill="#fcd34d" opacity="0.3"/>
    <rect x="13.0" y="33.0" width="7.0" height="7.0" rx="1.2" fill="#fbbf24" opacity="0.5"/>
    <rect x="27.0" y="47.0" width="7.0" height="7.0" rx="1.2" fill="#60a5fa" opacity="0.5"/>
    <rect x="20.0" y="54.0" width="7.0" height="7.0" rx="1.2" fill="#93c5fd" opacity="0.4"/>
    <rect x="13.0" y="61.0" width="7.0" height="7.0" rx="1.2" fill="#bfdbfe" opacity="0.3"/>
    <rect x="34.0" y="47.0" width="7.0" height="7.0" rx="1.2" fill="#3b82f6" opacity="0.6"/>
    <rect x="27.0" y="54.0" width="7.0" height="7.0" rx="1.2" fill="#60a5fa" opacity="0.4"/>
  </g>
  <text x="105" y="54" font-family="'Rubik', 'Segoe UI', 'Arial', sans-serif" font-weight="800" font-size="38" fill="#fef3c7" letter-spacing="-0.02em">Perry</text>
</svg>